<svg xmlns="http://www.w3.org/2000/svg" width="535" height="392" viewBox="0 0 535 392" fill="none"><path d="M321.365 37.4326H215.365C197.77 37.4326 183.539 51.6637 183.539 69.2586V324.901C183.539 342.496 197.77 356.727 215.365 356.727H321.365C338.96 356.727 353.191 342.496 353.191 324.901V69.2586C353.191 51.6637 338.96 37.4326 321.365 37.4326Z" fill="#0A2643"></path><path d="M345.172 69.2589V324.902C345.172 338.011 334.477 348.706 321.368 348.706H215.367C202.257 348.706 191.562 338.011 191.562 324.902V69.2589C191.562 56.149 202.257 45.4541 215.367 45.4541H228.305V47.1791C228.305 52.7853 232.79 57.2702 238.396 57.2702H298.339C303.945 57.2702 308.43 52.7853 308.43 47.1791V45.4541H321.368C334.477 45.4541 345.172 56.149 345.172 69.2589Z" fill="url(#paint0_linear_3343_451)"></path><path d="M264.872 229.164H207.862C204.584 229.164 201.824 231.838 201.824 235.202V276.601C201.824 279.879 204.498 282.639 207.862 282.639H264.872C268.15 282.639 270.91 279.965 270.91 276.601V235.202C270.91 231.838 268.15 229.164 264.872 229.164Z" fill="white"></path><path d="M292.99 74.6055H242.879C241.672 74.6055 240.637 75.6405 240.637 76.8479C240.637 78.0554 241.672 79.0904 242.879 79.0904H292.99C294.197 79.0904 295.232 78.0554 295.232 76.8479C295.232 75.6405 294.197 74.6055 292.99 74.6055Z" fill="white"></path><path d="M278.243 91.5967H257.629C256.422 91.5967 255.387 92.6317 255.387 93.8392C255.387 95.0467 256.422 96.0816 257.629 96.0816H278.243C279.45 96.0816 280.485 95.0467 280.485 93.8392C280.485 92.6317 279.536 91.5967 278.243 91.5967Z" fill="white"></path><path opacity="0.5" d="M106.432 95.3921V119.628C106.432 122.992 103.758 125.666 100.395 125.666H76.1585C72.7948 125.666 70.1211 122.992 70.1211 119.628V95.3921C70.1211 95.0471 70.1211 94.7021 70.2073 94.4434H106.346C106.346 94.7021 106.432 95.0471 106.432 95.3921Z" fill="white"></path><path opacity="0.5" d="M36.7428 160.079H18.4579C15.9567 160.079 13.8867 158.009 13.8867 155.508V137.137C13.8867 134.635 15.9567 132.565 18.4579 132.565H36.829C39.3302 132.565 41.4002 134.635 41.4002 137.137V155.508C41.314 158.095 39.244 160.079 36.7428 160.079Z" fill="white"></path><path opacity="0.5" d="M48.8176 169.652H33.8103C31.7403 169.652 30.1016 168.014 30.1016 165.944V150.936C30.1016 148.866 31.7403 147.228 33.8103 147.228H48.8176C50.8876 147.228 52.5264 148.866 52.5264 150.936V165.944C52.6126 168.014 50.8876 169.652 48.8176 169.652Z" fill="white"></path><path opacity="0.5" d="M171.204 168.876H135.497C130.581 168.876 126.613 164.908 126.613 159.992V124.285C126.613 119.369 130.581 115.401 135.497 115.401H171.204C176.12 115.401 180.088 119.369 180.088 124.285V159.992C180.088 164.908 176.12 168.876 171.204 168.876Z" fill="white"></path><path opacity="0.5" d="M80.9016 216.917H59.4256C56.4931 216.917 54.0781 219.332 54.0781 222.264V243.74C54.0781 246.673 56.4931 249.088 59.4256 249.088H80.9016C83.8341 249.088 86.2491 246.673 86.2491 243.74V222.264C86.2491 219.332 83.8341 216.917 80.9016 216.917ZM83.6616 243.74C83.6616 245.293 82.4541 246.5 80.9016 246.5H59.4256C57.8731 246.5 56.6656 245.293 56.6656 243.74V222.264C56.6656 220.712 57.8731 219.504 59.4256 219.504H80.9016C82.4541 219.504 83.6616 220.712 83.6616 222.264V243.74Z" fill="white"></path><path opacity="0.5" d="M78.4875 268.493H66.4989C64.8602 268.493 63.5664 269.787 63.5664 271.426V283.414C63.5664 285.053 64.8602 286.347 66.4989 286.347H78.4875C80.1263 286.347 81.42 285.053 81.42 283.414V271.426C81.42 269.787 80.1263 268.493 78.4875 268.493ZM79.9538 283.414C79.9538 284.277 79.2638 284.967 78.4013 284.967H66.4126C65.5501 284.967 64.8601 284.277 64.8601 283.414V271.426C64.8601 270.563 65.5501 269.873 66.4126 269.873H78.4013C79.2638 269.873 79.9538 270.563 79.9538 271.426V283.414Z" fill="white"></path><path opacity="0.5" d="M512.492 286.175H496.019C493.776 286.175 491.965 287.986 491.965 290.229V306.788C491.965 309.031 493.776 310.842 496.019 310.842H512.492C514.735 310.842 516.546 309.031 516.546 306.788V290.315C516.632 288.072 514.735 286.175 512.492 286.175ZM514.648 306.788C514.648 307.91 513.7 308.858 512.578 308.858H496.105C494.984 308.858 494.035 307.91 494.035 306.788V290.315C494.035 289.194 494.984 288.245 496.105 288.245H512.578C513.7 288.245 514.648 289.194 514.648 290.315V306.788Z" fill="white"></path><path opacity="0.5" d="M496.793 102.723H480.319C478.077 102.723 476.266 104.534 476.266 106.776V123.25C476.266 125.492 478.077 127.304 480.319 127.304H496.793C499.035 127.304 500.847 125.492 500.847 123.25V106.776C500.847 104.534 499.035 102.723 496.793 102.723ZM498.863 123.25C498.863 124.371 497.914 125.32 496.793 125.32H480.319C479.198 125.32 478.249 124.371 478.249 123.25V106.776C478.249 105.655 479.198 104.706 480.319 104.706H496.793C497.914 104.706 498.863 105.655 498.863 106.776V123.25Z" fill="white"></path><path opacity="0.5" d="M419 102.723H402.526C400.284 102.723 398.473 104.534 398.473 106.776V123.25C398.473 125.492 400.284 127.304 402.526 127.304H419C421.242 127.304 423.054 125.492 423.054 123.25V106.776C423.054 104.534 421.242 102.723 419 102.723ZM421.07 123.25C421.07 124.371 420.121 125.32 419 125.32H402.526C401.405 125.32 400.456 124.371 400.456 123.25V106.776C400.456 105.655 401.405 104.706 402.526 104.706H419C420.121 104.706 421.07 105.655 421.07 106.776V123.25Z" fill="white"></path><path opacity="0.5" d="M530.002 208.292H516.547C514.736 208.292 513.184 209.758 513.184 211.656V225.111C513.184 226.922 514.65 228.474 516.547 228.474H530.002C531.813 228.474 533.366 227.008 533.366 225.111V211.656C533.366 209.844 531.9 208.292 530.002 208.292ZM531.727 225.111C531.727 226.059 530.951 226.836 530.002 226.836H516.547C515.599 226.836 514.822 226.059 514.822 225.111V211.656C514.822 210.707 515.599 209.931 516.547 209.931H530.002C530.951 209.931 531.727 210.707 531.727 211.656V225.111Z" fill="white"></path><path opacity="0.5" d="M226.061 0H212.606C210.795 0 209.242 1.46624 209.242 3.36372V16.8186C209.242 18.6298 210.708 20.1823 212.606 20.1823H226.061C227.872 20.1823 229.425 18.7161 229.425 16.8186V3.36372C229.338 1.46624 227.872 0 226.061 0ZM227.786 16.8186C227.786 17.7673 227.01 18.5436 226.061 18.5436H212.606C211.657 18.5436 210.881 17.7673 210.881 16.8186V3.36372C210.881 2.41498 211.657 1.63874 212.606 1.63874H226.061C227.01 1.63874 227.786 2.41498 227.786 3.36372V16.8186Z" fill="white"></path><path opacity="0.5" d="M267.893 370.871H254.438C252.627 370.871 251.074 372.337 251.074 374.235V387.69C251.074 389.501 252.54 391.053 254.438 391.053H267.893C269.704 391.053 271.257 389.587 271.257 387.69V374.235C271.257 372.337 269.79 370.871 267.893 370.871ZM269.618 387.69C269.618 388.638 268.842 389.415 267.893 389.415H254.438C253.489 389.415 252.713 388.638 252.713 387.69V374.235C252.713 373.286 253.489 372.51 254.438 372.51H267.893C268.842 372.51 269.618 373.286 269.618 374.235V387.69Z" fill="white"></path><path opacity="0.5" d="M87.1994 276.687H76.7633C75.297 276.687 74.1758 275.566 74.1758 274.1V263.664C74.1758 262.197 75.297 261.076 76.7633 261.076H87.1994C88.6657 261.076 89.7869 262.197 89.7869 263.664V274.1C89.7869 275.48 88.6657 276.687 87.1994 276.687Z" fill="white"></path><path opacity="0.5" d="M483.512 116.35H459.104C455.74 116.35 453.066 113.676 453.066 110.312V85.9037C453.066 82.5399 455.74 79.8662 459.104 79.8662H483.512C486.876 79.8662 489.55 82.5399 489.55 85.9037V110.312C489.55 113.676 486.876 116.35 483.512 116.35Z" fill="white"></path><path opacity="0.5" d="M279.101 23.2012H264.525C262.541 23.2012 260.902 21.5625 260.902 19.5788V4.91641C260.902 2.93268 262.541 1.29395 264.525 1.29395H279.101C281.085 1.29395 282.723 2.93268 282.723 4.91641V19.5788C282.723 21.5625 281.085 23.2012 279.101 23.2012Z" fill="white"></path><path opacity="0.5" d="M308.253 383.205H297.99C296.61 383.205 295.402 382.084 295.402 380.618V370.354C295.402 368.974 296.524 367.767 297.99 367.767H308.253C309.633 367.767 310.841 368.888 310.841 370.354V380.618C310.841 382.084 309.633 383.205 308.253 383.205Z" fill="white"></path><path opacity="0.5" d="M185.692 370.44H162.923C159.818 370.44 157.316 367.939 157.316 364.834V342.064C157.316 338.959 159.818 336.458 162.923 336.458H185.692C188.797 336.458 191.299 338.959 191.299 342.064V364.834C191.299 367.939 188.797 370.44 185.692 370.44Z" fill="white"></path><path opacity="0.5" d="M397.697 214.329H387.002C385.536 214.329 384.328 213.122 384.328 211.656V200.961C384.328 199.495 385.536 198.287 387.002 198.287H397.697C399.163 198.287 400.371 199.495 400.371 200.961V211.656C400.284 213.122 399.163 214.329 397.697 214.329Z" fill="white"></path><path opacity="0.5" d="M510.336 164.908H493C490.671 164.908 488.688 163.011 488.688 160.596V143.26C488.688 140.931 490.585 138.947 493 138.947H510.336C512.665 138.947 514.649 140.845 514.649 143.26V160.596C514.649 162.925 512.751 164.908 510.336 164.908Z" fill="white"></path><path opacity="0.5" d="M493.689 226.058H482.131C480.579 226.058 479.285 224.765 479.285 223.212V211.655C479.285 210.102 480.579 208.809 482.131 208.809H493.689C495.241 208.809 496.535 210.102 496.535 211.655V223.212C496.535 224.765 495.327 226.058 493.689 226.058Z" fill="white"></path><path opacity="0.5" d="M529.311 298.595H508.87C506.11 298.595 503.781 296.353 503.781 293.506V273.065C503.781 270.305 506.024 267.977 508.87 267.977H529.311C532.071 267.977 534.4 270.219 534.4 273.065V293.506C534.4 296.266 532.157 298.595 529.311 298.595Z" fill="white"></path><path opacity="0.5" d="M526.721 176.207H510.592C508.35 176.207 506.625 174.396 506.625 172.24V156.111C506.625 153.869 508.436 152.144 510.592 152.144H526.721C528.964 152.144 530.689 153.955 530.689 156.111V172.24C530.775 174.482 528.964 176.207 526.721 176.207Z" fill="white"></path><path opacity="0.5" d="M165.253 349.826H143.777C140.845 349.826 138.43 347.411 138.43 344.479V323.003C138.43 320.07 140.845 317.655 143.777 317.655H165.253C168.186 317.655 170.601 320.07 170.601 323.003V344.479C170.601 347.411 168.186 349.826 165.253 349.826Z" fill="white"></path><path opacity="0.5" d="M17.0773 214.329H3.36372C1.46624 214.329 0 212.776 0 210.965V197.251C0 195.354 1.55249 193.888 3.36372 193.888H17.0773C18.9748 193.888 20.4411 195.44 20.4411 197.251V210.965C20.5273 212.776 18.9748 214.329 17.0773 214.329Z" fill="white"></path><path d="M248.657 211.57H168.531C163.098 211.57 158.785 207.171 158.785 201.824V121.698C158.785 116.265 163.184 111.952 168.531 111.952H248.657C254.091 111.952 258.403 116.351 258.403 121.698V201.824C258.403 207.171 254.004 211.57 248.657 211.57Z" fill="url(#paint1_linear_3343_451)"></path><path d="M199.65 180.693C195.625 180.693 192.451 179.517 190.129 177.163C187.807 174.81 186.646 171.311 186.646 166.666V147.949H189.014V166.574C189.014 170.63 189.943 173.633 191.801 175.584C193.659 177.535 196.291 178.51 199.697 178.51C203.072 178.51 205.688 177.535 207.546 175.584C209.404 173.633 210.333 170.63 210.333 166.574V147.949H212.702V166.666C212.702 171.311 211.541 174.81 209.218 177.163C206.896 179.517 203.707 180.693 199.65 180.693ZM223.754 180.461V147.949H226.123V180.461H223.754Z" fill="white"></path><path d="M368.118 211.57H287.992C282.559 211.57 278.246 207.171 278.246 201.824V121.698C278.246 116.265 282.645 111.952 287.992 111.952H368.118C373.551 111.952 377.864 116.351 377.864 121.698V201.824C377.95 207.171 373.551 211.57 368.118 211.57Z" fill="url(#paint2_linear_3343_451)"></path><path d="M312.318 180.693C308.293 180.693 305.119 179.517 302.797 177.163C300.475 174.81 299.314 171.311 299.314 166.666V147.949H301.682V166.574C301.682 170.63 302.611 173.633 304.469 175.584C306.327 177.535 308.959 178.51 312.365 178.51C315.74 178.51 318.356 177.535 320.214 175.584C322.072 173.633 323.001 170.63 323.001 166.574V147.949H325.37V166.666C325.37 171.311 324.209 174.81 321.886 177.163C319.564 179.517 316.375 180.693 312.318 180.693ZM331.231 180.461L344.422 162.765V164.623L332.114 147.949H334.901L345.769 162.626H344.747L355.615 147.949H358.263L346.048 164.437V162.858L359.145 180.461H356.359L344.654 164.762H345.63L334.018 180.461H331.231Z" fill="white"></path><path d="M149.73 248.225H119.888C113.764 248.225 108.848 243.309 108.848 237.185C108.848 231.062 113.764 226.146 119.888 226.146H149.73C155.853 226.146 160.77 231.062 160.77 237.185C160.77 243.309 155.853 248.225 149.73 248.225Z" fill="url(#paint3_linear_3343_451)"></path><path d="M148.52 245.897C153.331 245.897 157.231 241.997 157.231 237.186C157.231 232.375 153.331 228.475 148.52 228.475C143.709 228.475 139.809 232.375 139.809 237.186C139.809 241.997 143.709 245.897 148.52 245.897Z" fill="url(#paint4_linear_3343_451)"></path><path d="M149.73 280.31H119.888C113.764 280.31 108.848 275.394 108.848 269.27C108.848 263.147 113.764 258.23 119.888 258.23H149.73C155.853 258.23 160.77 263.147 160.77 269.27C160.77 275.308 155.853 280.31 149.73 280.31Z" fill="white"></path><path d="M120.922 277.982C125.733 277.982 129.633 274.082 129.633 269.271C129.633 264.46 125.733 260.56 120.922 260.56C116.111 260.56 112.211 264.46 112.211 269.271C112.211 274.082 116.111 277.982 120.922 277.982Z" fill="url(#paint5_linear_3343_451)"></path><path d="M416.154 232.096H284.624C283.503 232.096 282.641 233.044 282.641 234.079C282.641 235.201 283.589 236.063 284.624 236.063H416.154C417.276 236.063 418.138 235.114 418.138 234.079C418.138 233.044 417.276 232.096 416.154 232.096Z" fill="url(#paint6_linear_3343_451)"></path><path d="M416.154 250.898H284.624C283.503 250.898 282.641 251.847 282.641 252.882C282.641 254.003 283.589 254.866 284.624 254.866H416.154C417.276 254.866 418.138 253.917 418.138 252.882C418.138 251.761 417.276 250.898 416.154 250.898Z" fill="url(#paint7_linear_3343_451)"></path><path d="M416.154 272.806H284.624C283.503 272.806 282.641 273.754 282.641 274.789C282.641 275.911 283.589 276.773 284.624 276.773H416.154C417.276 276.773 418.138 275.824 418.138 274.789C418.138 273.754 417.276 272.806 416.154 272.806Z" fill="url(#paint8_linear_3343_451)"></path><path d="M416.155 232.096H368.977V236.149H416.155C417.276 236.149 418.139 235.201 418.139 234.166C418.139 233.044 417.276 232.096 416.155 232.096Z" fill="#476AA8"></path><path d="M416.155 250.898H327.75V254.952H416.155C417.277 254.952 418.139 254.003 418.139 252.968C418.139 251.761 417.277 250.898 416.155 250.898Z" fill="#476AA8"></path><path d="M416.154 272.806H389.676V276.859H416.154C417.276 276.859 418.138 275.911 418.138 274.876C418.138 273.754 417.276 272.806 416.154 272.806Z" fill="#476AA8"></path><path d="M376.568 233.563C376.568 236.754 373.981 239.255 370.876 239.255C367.685 239.255 365.184 236.668 365.184 233.563C365.184 230.371 367.771 227.87 370.876 227.87C373.981 227.784 376.568 230.371 376.568 233.563Z" fill="white"></path><path d="M335.084 252.279C335.084 255.471 332.497 257.972 329.392 257.972C326.2 257.972 323.699 255.384 323.699 252.279C323.699 249.088 326.287 246.587 329.392 246.587C332.583 246.587 335.084 249.088 335.084 252.279Z" fill="white"></path><path d="M395.076 277.287C396.755 274.629 395.961 271.113 393.302 269.435C390.644 267.756 387.128 268.55 385.449 271.209C383.771 273.867 384.565 277.383 387.224 279.062C389.882 280.74 393.398 279.946 395.076 277.287Z" fill="white"></path><path d="M299.201 326.971H241.845C239.775 326.971 238.137 325.332 238.137 323.262V311.187C238.137 309.117 239.775 307.479 241.845 307.479H299.201C301.271 307.479 302.91 309.117 302.91 311.187V323.262C302.91 325.332 301.271 326.971 299.201 326.971Z" fill="url(#paint9_linear_3343_451)"></path><path d="M282.815 315.241H258.407C257.113 315.241 256.078 316.276 256.078 317.57C256.078 318.864 257.113 319.899 258.407 319.899H282.815C284.109 319.899 285.144 318.864 285.144 317.57C285.058 316.276 284.023 315.241 282.815 315.241Z" fill="white"></path><path d="M134.894 336.802C143.754 336.802 150.936 329.62 150.936 320.76C150.936 311.9 143.754 304.718 134.894 304.718C126.034 304.718 118.852 311.9 118.852 320.76C118.852 329.62 126.034 336.802 134.894 336.802Z" fill="url(#paint10_linear_3343_451)"></path><path d="M141.363 319.552H136.102V314.291H133.601V319.552H128.426V322.053H133.601V327.228H136.102V322.053H141.363V319.552Z" fill="white"></path><path d="M383.379 93.4939H403.821C408.65 93.4939 412.618 89.5264 412.618 84.6965V64.2554C412.618 59.4255 408.65 55.458 403.821 55.458H383.379C378.55 55.458 374.582 59.4255 374.582 64.2554V84.6965C374.582 89.6127 378.55 93.4939 383.379 93.4939Z" fill="url(#paint11_linear_3343_451)"></path><path d="M390.626 66.4123L399.251 72.7085C400.458 73.571 400.458 75.4685 399.251 76.331L390.626 82.6272C389.16 83.6622 387.09 82.6272 387.09 80.816V68.3098C387.09 66.4123 389.16 65.3774 390.626 66.4123Z" fill="white"></path><path d="M459.709 300.492H372.079C368.284 300.492 365.266 303.597 365.266 307.306V315.931C365.266 319.726 368.371 322.744 372.079 322.744H459.709C463.503 322.744 466.522 319.64 466.522 315.931V307.306C466.522 303.597 463.503 300.492 459.709 300.492Z" fill="url(#paint12_linear_3343_451)"></path><path d="M433.918 309.634H397.952C396.917 309.634 396.055 310.496 396.055 311.531C396.055 312.566 396.917 313.429 397.952 313.429H433.918C434.953 313.429 435.816 312.566 435.816 311.531C435.729 310.41 434.867 309.634 433.918 309.634Z" fill="white"></path><path d="M459.709 335.164H372.079C368.284 335.164 365.266 338.269 365.266 341.978V350.603C365.266 354.398 368.371 357.416 372.079 357.416H459.709C463.503 357.416 466.522 354.311 466.522 350.603V341.978C466.522 338.183 463.503 335.164 459.709 335.164Z" fill="url(#paint13_linear_3343_451)"></path><path d="M433.918 344.651H397.952C396.917 344.651 396.055 345.514 396.055 346.549C396.055 347.584 396.917 348.446 397.952 348.446H433.918C434.953 348.446 435.816 347.584 435.816 346.549C435.729 345.514 434.867 344.651 433.918 344.651Z" fill="white"></path><path d="M438.836 93.4939H459.278C464.108 93.4939 468.075 89.5264 468.075 84.6965V64.2554C468.075 59.4255 464.108 55.458 459.278 55.458H438.836C434.007 55.458 430.039 59.4255 430.039 64.2554V84.6965C430.039 89.6127 434.007 93.4939 438.836 93.4939Z" fill="url(#paint14_linear_3343_451)"></path><path d="M456.691 72.5352V79.7801H441.425V72.5352H439.527V81.6776H458.588V72.5352H456.691Z" fill="white"></path><path d="M453.847 73.2256L452.553 71.9319L450.052 74.4331V67.2744H448.154V74.4331L445.653 71.9319L444.359 73.2256L449.103 77.9693L453.847 73.2256Z" fill="white"></path><path d="M68.2232 339.562H88.6643C93.4942 339.562 97.4617 335.595 97.4617 330.765V310.324C97.4617 305.494 93.4942 301.526 88.6643 301.526H68.2232C63.3932 301.526 59.4258 305.494 59.4258 310.324V330.765C59.4258 335.595 63.307 339.562 68.2232 339.562Z" fill="url(#paint15_linear_3343_451)"></path><path d="M86.0776 319.466V326.711H70.8115V319.466H68.9141V328.608H87.8889V319.466H86.0776Z" fill="white"></path><path d="M73.6562 319.035L74.95 320.328L77.4512 317.827V324.986H79.3487V317.827L81.8499 320.328L83.1437 319.035L78.4 314.291L73.6562 319.035Z" fill="white"></path><defs><linearGradient id="paint0_linear_3343_451" x1="198.683" y1="127.463" x2="343.558" y2="272.338" gradientUnits="userSpaceOnUse"><stop stop-color="#073149"></stop><stop offset="1" stop-color="#130933"></stop></linearGradient><linearGradient id="paint1_linear_3343_451" x1="271.479" y1="224.652" x2="176.945" y2="130.118" gradientUnits="userSpaceOnUse"><stop stop-color="#0837FF"></stop><stop offset="1" stop-color="#00B1FF"></stop></linearGradient><linearGradient id="paint2_linear_3343_451" x1="300.337" y1="133.986" x2="355.726" y2="189.375" gradientUnits="userSpaceOnUse"><stop stop-color="#FFA415"></stop><stop offset="0.9995" stop-color="#FF2A65"></stop></linearGradient><linearGradient id="paint3_linear_3343_451" x1="147.422" y1="249.765" x2="117.177" y2="219.521" gradientUnits="userSpaceOnUse"><stop stop-color="#FFA415"></stop><stop offset="0.9995" stop-color="#FF2A65"></stop></linearGradient><linearGradient id="paint4_linear_3343_451" x1="153.635" y1="242.294" x2="141.39" y2="230.048" gradientUnits="userSpaceOnUse"><stop stop-color="#073149"></stop><stop offset="1" stop-color="#130933"></stop></linearGradient><linearGradient id="paint5_linear_3343_451" x1="112.234" y1="269.261" x2="129.69" y2="269.261" gradientUnits="userSpaceOnUse"><stop stop-color="#FFA415"></stop><stop offset="0.9995" stop-color="#FF2A65"></stop></linearGradient><linearGradient id="paint6_linear_3343_451" x1="319.004" y1="202.754" x2="376.326" y2="260.076" gradientUnits="userSpaceOnUse"><stop stop-color="#FFA415"></stop><stop offset="0.9995" stop-color="#FF2A65"></stop></linearGradient><linearGradient id="paint7_linear_3343_451" x1="361.878" y1="264.415" x2="321.119" y2="223.656" gradientUnits="userSpaceOnUse"><stop stop-color="#0837FF"></stop><stop offset="1" stop-color="#00B1FF"></stop></linearGradient><linearGradient id="paint8_linear_3343_451" x1="319.004" y1="243.498" x2="376.326" y2="300.82" gradientUnits="userSpaceOnUse"><stop stop-color="#FFA415"></stop><stop offset="0.9995" stop-color="#FF2A65"></stop></linearGradient><linearGradient id="paint9_linear_3343_451" x1="312.736" y1="359.43" x2="250.685" y2="297.379" gradientUnits="userSpaceOnUse"><stop stop-color="#0837FF"></stop><stop offset="1" stop-color="#00B1FF"></stop></linearGradient><linearGradient id="paint10_linear_3343_451" x1="145.45" y1="331.356" x2="125.709" y2="311.615" gradientUnits="userSpaceOnUse"><stop stop-color="#0837FF"></stop><stop offset="1" stop-color="#00B1FF"></stop></linearGradient><linearGradient id="paint11_linear_3343_451" x1="408.981" y1="89.8381" x2="380.367" y2="61.2244" gradientUnits="userSpaceOnUse"><stop stop-color="#FFA415"></stop><stop offset="0.9995" stop-color="#FF2A65"></stop></linearGradient><linearGradient id="paint12_linear_3343_451" x1="447.817" y1="343.575" x2="358.209" y2="253.966" gradientUnits="userSpaceOnUse"><stop stop-color="#0837FF"></stop><stop offset="1" stop-color="#00B1FF"></stop></linearGradient><linearGradient id="paint13_linear_3343_451" x1="392.443" y1="322.827" x2="440.931" y2="371.315" gradientUnits="userSpaceOnUse"><stop stop-color="#FFA415"></stop><stop offset="0.9995" stop-color="#FF2A65"></stop></linearGradient><linearGradient id="paint14_linear_3343_451" x1="463.884" y1="89.3209" x2="435.826" y2="61.2629" gradientUnits="userSpaceOnUse"><stop stop-color="#0837FF"></stop><stop offset="1" stop-color="#00B1FF"></stop></linearGradient><linearGradient id="paint15_linear_3343_451" x1="93.7769" y1="335.866" x2="65.1632" y2="307.253" gradientUnits="userSpaceOnUse"><stop stop-color="#FFA415"></stop><stop offset="0.9995" stop-color="#FF2A65"></stop></linearGradient></defs></svg>